<svg width="49" height="48" viewBox="0 0 49 48" fill="none" xmlns="http://www.w3.org/2000/svg">
<path d="M0.599991 8C0.599991 3.58172 4.18171 0 8.59999 0H40.6C45.0183 0 48.6 3.58172 48.6 8V40C48.6 44.4183 45.0183 48 40.6 48H8.59999C4.18171 48 0.599991 44.4183 0.599991 40V8Z" fill="#F5EBF9"/>
<path d="M33.572 14.863C33.5664 14.7926 33.5526 14.7232 33.531 14.656C33.5027 14.5888 33.4668 14.525 33.424 14.466C33.4049 14.426 33.3832 14.3872 33.359 14.35C33.351 14.34 33.339 14.337 33.331 14.328C33.2782 14.2761 33.2199 14.2302 33.157 14.191C33.1126 14.1557 33.0654 14.1239 33.016 14.096C32.9605 14.0755 32.9033 14.0598 32.845 14.049C32.7777 14.028 32.7083 14.0142 32.6381 14.008C32.6251 14.007 32.6141 14 32.6001 14H29.3933C29.1281 14 28.8738 14.1054 28.6862 14.2929C28.4987 14.4804 28.3934 14.7348 28.3934 15C28.3934 15.2652 28.4987 15.5196 28.6862 15.7071C28.8738 15.8946 29.1281 16 29.3933 16H29.8933L25.3416 19.9L21.8418 19.026C21.6925 18.9887 21.5366 18.9863 21.3863 19.0191C21.2359 19.0518 21.0951 19.1189 20.9749 19.215L15.9753 23.215C15.7681 23.3808 15.6353 23.622 15.6061 23.8857C15.5768 24.1494 15.6535 24.4139 15.8193 24.621C15.985 24.8281 16.2263 24.9609 16.4899 24.9902C16.7536 25.0194 17.0181 24.9428 17.2252 24.777L21.8388 21.09L25.3586 21.97C25.5133 22.0085 25.675 22.0094 25.8301 21.9727C25.9853 21.936 26.1294 21.8627 26.2505 21.759L31.6001 17.173V18.207C31.6001 18.4722 31.7055 18.7266 31.893 18.9141C32.0805 19.1016 32.3349 19.207 32.6001 19.207C32.8653 19.207 33.1196 19.1016 33.3071 18.9141C33.4946 18.7266 33.6 18.4722 33.6 18.207V15C33.5942 14.9537 33.5849 14.9079 33.572 14.863Z" fill="#57009C"/>
<path d="M28.1004 23C27.0127 23 25.9494 23.3226 25.045 23.9269C24.1406 24.5313 23.4357 25.3902 23.0194 26.3952C22.6032 27.4002 22.4943 28.5061 22.7065 29.573C22.9187 30.6399 23.4424 31.6199 24.2116 32.3891C24.9807 33.1583 25.9606 33.6821 27.0275 33.8943C28.0943 34.1065 29.2001 33.9976 30.205 33.5813C31.2099 33.1651 32.0688 32.4601 32.6731 31.5556C33.2774 30.6512 33.6 29.5878 33.6 28.5C33.6 27.0413 33.0206 25.6424 31.9892 24.6109C30.9578 23.5795 29.559 23 28.1004 23ZM28.3404 27.591C29.1415 27.7754 29.8371 28.2694 30.2752 28.965C30.4192 29.1995 30.5142 29.4608 30.5544 29.733C30.5946 30.0053 30.5792 30.2829 30.5092 30.549C30.4095 30.8835 30.2335 31.1903 29.9951 31.4452C29.7567 31.7001 29.4624 31.8962 29.1353 32.018C29.1233 32.262 29.0207 32.4927 28.8478 32.6651C28.6748 32.8375 28.4438 32.9393 28.1998 32.9505C27.9558 32.9618 27.7164 32.8817 27.5283 32.7259C27.3402 32.5701 27.2169 32.3498 27.1825 32.108C26.6094 31.9569 26.0953 31.6362 25.7076 31.188C25.5374 30.9843 25.4552 30.7214 25.4789 30.457C25.5026 30.1927 25.6304 29.9486 25.8341 29.7785C26.0377 29.6084 26.3006 29.5261 26.5649 29.5498C26.8293 29.5736 27.0733 29.7013 27.2434 29.905C27.3779 30.0523 27.5552 30.1538 27.7504 30.195C27.8914 30.2489 28.0451 30.2605 28.1926 30.2286C28.3402 30.1966 28.4752 30.1224 28.5814 30.015C28.5005 29.8912 28.3957 29.7849 28.273 29.7022C28.1504 29.6196 28.0125 29.5624 27.8674 29.534C27.0663 29.35 26.3709 28.8559 25.9335 28.16C25.79 27.9253 25.6953 27.664 25.6553 27.3918C25.6152 27.1196 25.6306 26.8421 25.7006 26.576C25.8051 26.2293 25.9914 25.9127 26.2437 25.6529C26.496 25.3931 26.807 25.1977 27.1505 25.083V25.053C27.1505 24.7878 27.2558 24.5334 27.4433 24.3459C27.6308 24.1584 27.8852 24.053 28.1504 24.053C28.4156 24.053 28.6699 24.1584 28.8574 24.3459C29.045 24.5334 29.1503 24.7878 29.1503 25.053C29.6669 25.2116 30.1295 25.5099 30.4872 25.915C30.5726 26.0151 30.6374 26.131 30.6779 26.2561C30.7185 26.3812 30.734 26.5131 30.7236 26.6442C30.7132 26.7753 30.6771 26.9031 30.6173 27.0203C30.5576 27.1374 30.4753 27.2416 30.3752 27.327C30.2752 27.4124 30.1593 27.4772 30.0342 27.5177C29.9091 27.5583 29.7772 27.5738 29.6461 27.5634C29.515 27.553 29.3872 27.5169 29.2701 27.4571C29.1529 27.3973 29.0487 27.3151 28.9633 27.215C28.8279 27.0696 28.6508 26.9697 28.4564 26.929C28.3156 26.8752 28.1623 26.8635 28.0151 26.8955C27.8679 26.9275 27.7331 27.0017 27.6274 27.109C27.7083 27.2326 27.813 27.3389 27.9354 27.4217C28.0578 27.5045 28.1955 27.562 28.3404 27.591Z" fill="#57009C"/>
<path d="M20.6009 34C20.3357 34 20.0814 33.8946 19.8939 33.7071C19.7063 33.5196 19.601 33.2652 19.601 33V27C19.601 26.7348 19.7063 26.4804 19.8939 26.2929C20.0814 26.1054 20.3357 26 20.6009 26C20.8661 26 21.1205 26.1054 21.308 26.2929C21.4955 26.4804 21.6009 26.7348 21.6009 27V33C21.6009 33.2652 21.4955 33.5196 21.308 33.7071C21.1205 33.8946 20.8661 34 20.6009 34Z" fill="#57009C"/>
<path d="M16.6012 34C16.336 34 16.0817 33.8946 15.8942 33.7071C15.7066 33.5196 15.6013 33.2652 15.6013 33V29C15.6013 28.7348 15.7066 28.4804 15.8942 28.2929C16.0817 28.1054 16.336 28 16.6012 28C16.8664 28 17.1207 28.1054 17.3083 28.2929C17.4958 28.4804 17.6011 28.7348 17.6011 29V33C17.6011 33.2652 17.4958 33.5196 17.3083 33.7071C17.1207 33.8946 16.8664 34 16.6012 34Z" fill="#57009C"/>
</svg>
