<svg width="48" height="48" viewBox="0 0 48 48" fill="none" xmlns="http://www.w3.org/2000/svg">
<path d="M-2.28882e-05 8C-2.28882e-05 3.58172 3.5817 0 7.99998 0H40C44.4183 0 48 3.58172 48 8V40C48 44.4183 44.4183 48 40 48H7.99998C3.5817 48 -2.28882e-05 44.4183 -2.28882e-05 40V8Z" fill="#F5EBF9"/>
<g clip-path="url(#clip0_471_48908)">
<path fill-rule="evenodd" clip-rule="evenodd" d="M20.084 14.6C20.246 14.235 20.607 14 21.007 14H28.984C29.734 14 30.223 14.79 29.887 15.462L27.618 20H30.976C31.876 20 32.326 21.088 31.69 21.724L19.737 33.677C18.983 34.431 17.727 33.655 18.065 32.644L20.613 25H17.015C16.8467 25 16.6811 24.958 16.5333 24.8777C16.3854 24.7974 16.2599 24.6815 16.1682 24.5404C16.0765 24.3994 16.0215 24.2376 16.0082 24.0699C15.9949 23.9022 16.0237 23.7338 16.092 23.58L20.084 14.6Z" fill="#57009C"/>
</g>
<defs>
<clipPath id="clip0_471_48908">
<rect width="24" height="24" fill="white" transform="translate(12 12)"/>
</clipPath>
</defs>
</svg>
