<svg width="49" height="48" viewBox="0 0 49 48" fill="none" xmlns="http://www.w3.org/2000/svg">
<path d="M0.399963 8C0.399963 3.58172 3.98169 0 8.39996 0H40.4C44.8182 0 48.4 3.58172 48.4 8V40C48.4 44.4183 44.8182 48 40.4 48H8.39996C3.98169 48 0.399963 44.4183 0.399963 40V8Z" fill="#F5EBF9"/>
<g clip-path="url(#clip0_471_48917)">
<path d="M34.3 22.6297C34.3 22.6202 34.3 22.6096 34.294 22.6011L32.294 18.3683C32.211 18.1926 32.0834 18.0448 31.9255 17.9414C31.7676 17.8381 31.5856 17.7833 31.4 17.7832H27.4C27.4 17.2218 27.1892 16.6835 26.8142 16.2866C26.4391 15.8897 25.9304 15.6667 25.4 15.6667H16.4C15.8695 15.6667 15.3608 15.8897 14.9857 16.2866C14.6107 16.6835 14.4 17.2218 14.4 17.7832V27.307C14.4 27.5876 14.5053 27.8568 14.6929 28.0552C14.8804 28.2537 15.1347 28.3652 15.4 28.3652H15.7C15.6698 28.5398 15.6527 28.7167 15.649 28.8943C15.649 29.8064 15.9914 30.6811 16.6009 31.3261C17.2104 31.9711 18.037 32.3334 18.899 32.3334C19.7609 32.3334 20.5876 31.9711 21.1971 31.3261C21.8066 30.6811 22.149 29.8064 22.149 28.8943C22.1459 28.7168 22.1295 28.5399 22.1 28.3652H26.7C26.6698 28.5398 26.6527 28.7167 26.649 28.8943C26.649 29.8064 26.9914 30.6811 27.6009 31.3261C28.2104 31.9711 29.037 32.3334 29.899 32.3334C30.7609 32.3334 31.5876 31.9711 32.1971 31.3261C32.8066 30.6811 33.149 29.8064 33.149 28.8943C33.1459 28.7168 33.1295 28.5399 33.1 28.3652H33.4C33.6652 28.3652 33.9195 28.2537 34.1071 28.0552C34.2946 27.8568 34.4 27.5876 34.4 27.307V23.0742C34.3979 22.92 34.3638 22.7683 34.3 22.6297ZM30.782 19.8996L31.782 22.016H27.4V19.8996H30.782ZM18.9 30.217C18.6527 30.217 18.4111 30.1394 18.2055 29.9941C17.9999 29.8487 17.8397 29.6422 17.7451 29.4005C17.6505 29.1588 17.6258 28.8928 17.674 28.6362C17.7222 28.3796 17.8413 28.1439 18.0161 27.9589C18.1909 27.7739 18.4136 27.648 18.6561 27.5969C18.8986 27.5459 19.1499 27.5721 19.3783 27.6722C19.6067 27.7723 19.8019 27.9419 19.9393 28.1594C20.0767 28.3769 20.15 28.6326 20.15 28.8943C20.1494 29.2449 20.0176 29.581 19.7833 29.829C19.549 30.0769 19.2313 30.2165 18.9 30.217ZM29.9 30.217C29.6527 30.217 29.4111 30.1394 29.2055 29.9941C28.9999 29.8487 28.8397 29.6422 28.7451 29.4005C28.6505 29.1588 28.6258 28.8928 28.674 28.6362C28.7222 28.3796 28.8413 28.1439 29.0161 27.9589C29.1909 27.7739 29.4136 27.648 29.6561 27.5969C29.8986 27.5459 30.1499 27.5721 30.3783 27.6722C30.6067 27.7723 30.8019 27.9419 30.9393 28.1594C31.0767 28.3769 31.15 28.6326 31.15 28.8943C31.1494 29.2449 31.0176 29.581 30.7833 29.829C30.549 30.0769 30.2313 30.2165 29.9 30.217Z" fill="#57009C"/>
</g>
<defs>
<clipPath id="clip0_471_48917">
<rect width="20" height="20" fill="white" transform="translate(14.4 14)"/>
</clipPath>
</defs>
</svg>
