<svg width="49" height="48" viewBox="0 0 49 48" fill="none" xmlns="http://www.w3.org/2000/svg">
<path d="M0.200012 8C0.200012 3.58172 3.78173 0 8.20001 0H40.2C44.6183 0 48.2 3.58172 48.2 8V40C48.2 44.4183 44.6183 48 40.2 48H8.20001C3.78174 48 0.200012 44.4183 0.200012 40V8Z" fill="#F5EBF9"/>
<path d="M31.075 21H29.3563V18.5C29.3563 17.3065 28.813 16.1619 27.846 15.318C26.8791 14.4741 25.5675 14 24.2 14C22.8325 14 21.521 14.4741 20.554 15.318C19.587 16.1619 19.0438 17.3065 19.0438 18.5V21H17.325C16.7172 21 16.1343 21.2107 15.7046 21.5858C15.2748 21.9609 15.0334 22.4696 15.0334 23V32C15.0334 32.5304 15.2748 33.0391 15.7046 33.4142C16.1343 33.7893 16.7172 34 17.325 34H31.075C31.6828 34 32.2657 33.7893 32.6955 33.4142C33.1252 33.0391 33.3667 32.5304 33.3667 32V23C33.3667 22.4696 33.1252 21.9609 32.6955 21.5858C32.2657 21.2107 31.6828 21 31.075 21ZM25.3459 29C25.3459 29.2652 25.2251 29.5196 25.0102 29.7071C24.7954 29.8946 24.5039 30 24.2 30C23.8961 30 23.6047 29.8946 23.3898 29.7071C23.1749 29.5196 23.0542 29.2652 23.0542 29V26C23.0542 25.7348 23.1749 25.4804 23.3898 25.2929C23.6047 25.1054 23.8961 25 24.2 25C24.5039 25 24.7954 25.1054 25.0102 25.2929C25.2251 25.4804 25.3459 25.7348 25.3459 26V29ZM27.0646 21H21.3354V18.5C21.3354 17.837 21.6372 17.2011 22.1745 16.7322C22.7117 16.2634 23.4403 16 24.2 16C24.9598 16 25.6884 16.2634 26.2256 16.7322C26.7628 17.2011 27.0646 17.837 27.0646 18.5V21Z" fill="#57009C"/>
</svg>
